<svg xmlns="http://www.w3.org/2000/svg" viewBox="0 0 520 220" role="img" aria-labelledby="t d"><title id="t">Les Fermes Anguiley Gabon SARL — logo hommage à Mathurine Anguiley</title><desc id="d">Logo moderne montrant une mère, grand-mère et arrière-grand-mère gabonaise aux formes rondes, portant un pagne traditionnel enroulé sous les aisselles et un chapeau traditionnel, penchée avec bienveillance pour arroser une jeune plante.</desc><defs><linearGradient id="leaf" x1="0" x2="1" y1="0" y2="1"><stop stop-color="#123f28"/><stop offset=".52" stop-color="#4f8b48"/><stop offset="1" stop-color="#93bd64"/></linearGradient><linearGradient id="gold" x1="0" x2="1" y1="0" y2="1"><stop stop-color="#ffe5a7"/><stop offset=".55" stop-color="#d59b54"/><stop offset="1" stop-color="#9f5a32"/></linearGradient><linearGradient id="pagne" x1="0" x2="1"><stop stop-color="#f2efe4"/><stop offset=".34" stop-color="#f7d58b"/><stop offset=".68" stop-color="#c86b3e"/><stop offset="1" stop-color="#174d31"/></linearGradient><filter id="shadow" x="-20%" y="-20%" width="140%" height="140%"><feDropShadow dx="0" dy="10" stdDeviation="10" flood-color="#14351f" flood-opacity=".24"/></filter></defs><rect width="520" height="220" rx="46" fill="transparent"/><g filter="url(#shadow)"><g transform="translate(36 34)"><path d="M92 154C38 122 32 67 77 20c36 43 37 93 15 134Z" fill="url(#leaf)"/><path d="M91 154c53-20 80-60 70-119-54 13-86 56-70 119Z" fill="#6fa354"/><path d="M88 154c-3-57 11-94 48-134" fill="none" stroke="#f2d28c" stroke-width="6" stroke-linecap="round"/><path d="M88 123c-22-10-39-27-51-49M101 116c25-10 45-29 59-56" fill="none" stroke="rgba(255,255,255,.46)" stroke-width="3.5" stroke-linecap="round"/><path d="M72 171c30-16 65-16 98 0" fill="none" stroke="#184b2e" stroke-width="8" stroke-linecap="round" opacity=".35"/></g><g transform="translate(226 18)" fill="none" stroke-linecap="round" stroke-linejoin="round"><path d="M128 32c-24-12-51-8-67 10" stroke="url(#gold)" stroke-width="8"/><path d="M55 49c28-18 63-15 92 7" stroke="url(#gold)" stroke-width="7"/><path d="M49 58c38-15 78-9 112 19" stroke="url(#gold)" stroke-width="6"/><path d="M64 73c20 5 39 4 58-4" stroke="#7a4529" stroke-width="4" opacity=".75"/><circle cx="98" cy="74" r="19" fill="#9f5a32" stroke="url(#gold)" stroke-width="6"/><path d="M82 96c-18 16-28 39-30 75" stroke="url(#gold)" stroke-width="9"/><path d="M117 98c32 33 41 67 29 103" stroke="url(#gold)" stroke-width="9"/><path d="M75 111c18 15 47 18 72 8" stroke="#f6d79a" stroke-width="6"/><path d="M69 118c-10 27-10 55-1 82" stroke="url(#gold)" stroke-width="7"/><path d="M132 121c14 26 19 54 11 80" stroke="url(#gold)" stroke-width="7"/><path d="M58 119c-22 23-34 53-33 87" stroke="#b86b3a" stroke-width="6"/><path d="M151 128c20 24 29 50 24 78" stroke="#b86b3a" stroke-width="6"/><path d="M52 127c34 21 77 28 118 11" stroke="#174d31" stroke-width="5" opacity=".9"/><path d="M47 140c37 23 83 30 130 13" stroke="#f7d58b" stroke-width="4" opacity=".95"/><path d="M43 154c41 24 91 30 140 11" stroke="#c86b3e" stroke-width="4" opacity=".95"/><path d="M42 166c43 22 95 28 143 10" stroke="#174d31" stroke-width="4" opacity=".9"/><path d="M75 108c-30 12-56 31-76 58" stroke="url(#gold)" stroke-width="8"/><path d="M120 105c-31 12-58 23-86 31" stroke="url(#gold)" stroke-width="7"/><path d="M22 147c-18-2-33 2-47 12" stroke="url(#gold)" stroke-width="6"/><path d="M-25 159l-36 16" stroke="url(#gold)" stroke-width="5"/><path d="M-52 166c-16 13-34 22-55 27" stroke="#f1d196" stroke-width="5"/><path d="M-83 188c-10-7-15-17-14-29" stroke="#3d7b43" stroke-width="5"/><path d="M-80 188c17-7 28-19 33-37" stroke="#78a85e" stroke-width="5"/><path d="M-84 188c0-23 8-39 24-52" stroke="#174d31" stroke-width="5"/></g></g><g transform="translate(28 184)"><text x="0" y="0" font-family="Inter,Arial,sans-serif" font-size="18" font-weight="900" fill="#173d25" letter-spacing="1.5">LES FERMES ANGUILEY</text><text x="0" y="24" font-family="Inter,Arial,sans-serif" font-size="12" font-weight="800" fill="#9f5a32" letter-spacing="2.8">GABON SARL · TERROIR · TRANSMISSION · AVENIR</text></g></svg>