<svg xmlns="http://www.w3.org/2000/svg" viewBox="0 0 512 512" role="img" aria-labelledby="title desc">
  <title id="title">Les Fermes Anguiley Gabon SARL</title>
  <desc id="desc">Logo des Fermes Anguiley : héritage, terre natale, savoir-faire durable.</desc>
  <defs>
    <linearGradient id="gold" x1="0" x2="1" y1="0" y2="1"><stop offset="0" stop-color="#fff0a8"/><stop offset=".45" stop-color="#d69a23"/><stop offset="1" stop-color="#8b5a10"/></linearGradient>
    <linearGradient id="green" x1="0" x2="1" y1="0" y2="1"><stop offset="0" stop-color="#1f6a3b"/><stop offset="1" stop-color="#092917"/></linearGradient>
    <filter id="shadow" x="-20%" y="-20%" width="140%" height="140%"><feDropShadow dx="0" dy="12" stdDeviation="12" flood-color="#000" flood-opacity=".22"/></filter>
  </defs>
  <rect width="512" height="512" fill="none"/>
  <g filter="url(#shadow)">
    <circle cx="256" cy="218" r="176" fill="#f8e3a3" stroke="url(#gold)" stroke-width="24"/>
    <circle cx="256" cy="218" r="146" fill="#f5d88a" stroke="#123f28" stroke-width="8"/>
    <path d="M104 250c42-82 98-122 152-122s110 40 152 122c-35 46-86 74-152 74s-117-28-152-74z" fill="#dfe9c8"/>
    <path d="M126 263c32-54 77-86 130-86s98 32 130 86c-38 27-82 42-130 42s-92-15-130-42z" fill="#6f9a57"/>
    <path d="M76 292c45 0 74 21 98 53-47 2-80-13-98-53zM436 292c-45 0-74 21-98 53 47 2 80-13 98-53z" fill="#1f6a3b"/>
    <ellipse cx="164" cy="282" rx="42" ry="30" fill="#f6b6a5" stroke="#7a2d24" stroke-width="5"/>
    <circle cx="148" cy="276" r="6" fill="#111810"/>
    <ellipse cx="350" cy="278" rx="38" ry="28" fill="#6b4a2d" stroke="#123f28" stroke-width="5"/>
    <circle cx="338" cy="270" r="6" fill="#111810"/>
    <path d="M332 282c18 12 38 13 57 2" fill="none" stroke="#0c2e1b" stroke-width="8" stroke-linecap="round"/>
    <ellipse cx="256" cy="224" rx="76" ry="94" fill="#f5c18a" stroke="#5a2f1e" stroke-width="5"/>
    <path d="M185 174c34-66 105-66 142-16 27 1 48 13 66 38-62-10-123-9-208 8-28-4-48-2-66 5 15-20 36-31 66-35z" fill="#fffaf0" stroke="#d1b37a" stroke-width="6"/>
    <path d="M205 238c30 25 75 25 104 0" fill="none" stroke="#5a2f1e" stroke-width="7" stroke-linecap="round"/>
    <circle cx="228" cy="215" r="8" fill="#111810"/><circle cx="284" cy="215" r="8" fill="#111810"/>
    <path d="M66 336h380c20 0 36 16 36 36v32c0 20-16 36-36 36H66c-20 0-36-16-36-36v-32c0-20 16-36 36-36z" fill="url(#green)" stroke="url(#gold)" stroke-width="12"/>
    <text x="256" y="391" text-anchor="middle" font-family="Georgia, Times New Roman, serif" font-size="72" font-weight="900" fill="url(#gold)" stroke="#fff0a8" stroke-width="1.5" letter-spacing="2">ANGUILEY</text>
    <text x="256" y="351" text-anchor="middle" font-family="Arial, sans-serif" font-size="32" font-weight="900" fill="#fffaf0" letter-spacing="8">FERMES</text>
    <path d="M104 454h304" stroke="url(#gold)" stroke-width="18" stroke-linecap="round"/>
    <text x="256" y="462" text-anchor="middle" font-family="Arial, sans-serif" font-size="17" font-weight="900" fill="#123f28" letter-spacing="1">L’HÉRITAGE CULTIVÉ, L’AVENIR PARTAGÉ</text>
  </g>
</svg>
